PathFileType	4	(X/Y/Z)	C:/Users/beibeiliu/ov580/test_trc/User3\sequence.49_training_dense_right.trc
DataRate	CameraRate	NumFrames	NumMarkers	Units	OrigDataRate	OrigDataStartFrame	OrigNumFrames
120	120	14	19	mm	120	30	87
Frame#	Time	ThumbCMC			ThumbMCP			ThumbIP			ThumbTip			IndexMCP			IndexPIP			IndexTip			MiddleMCP			MiddlePIP			MiddleTip			RingMCP			RingPIP			RingTip			PinkyMCP			PinkyPIP			PinkyTip			BackHand1			BackHand2			BackHand3	
		X0	Y0	Z0	X1	Y1	Z1	X2	Y2	Z2	X3	Y3	Z3	X4	Y4	Z4	X5	Y5	Z5	X6	Y6	Z6	X7	Y7	Z7	X8	Y8	Z8	X9	Y9	Z9	X10	Y10	Z10	X11	Y11	Z11	X12	Y12	Z12	X13	Y13	Z13	X14	Y14	Z14	X15	Y15	Z15	X16	Y16	Z16	X17	Y17	Z17	X18	Y18	Z18	
29	0.241667	200.475	-0.740879	55.5197	208.243	12.0405	30.4764	218.7	22.4375	2.04196	221.479	30.1346	-18.4946	174.09	-6.47355	-23.7849	172.388	3.5238	-42.7571	166.066	14.558	-64.9469	149.12	-12.606	-22.4542	137.819	6.25729	-40.7276	127.024	34.3468	-58.2353	133.686	-24.5483	-7.5652	122.945	-15.6382	-31.6853	110.583	-2.49653	-51.9618	117.68	-30.7853	14.7467	99.8886	-31.0998	-1.95812	84.2421	-31.4457	-14.6719	155.318	-42.1622	37.9051	160.524	-47.7163	69.5123	189.966	-29.3597	46.9091	
30	0.25	202.471	0.554251	53.0561	210.07	12.7689	28.8701	216.889	23.795	4.94091	220.35	32.612	-13.7599	178.838	-4.13214	-20.7584	169.4	7.08235	-42.8265	164.523	19.1929	-62.2109	151.649	-18.5251	-21.1721	141.303	-6.13411	-46.0373	128.863	12.364	-68.6318	133.327	-26.3775	-8.33728	124.512	-19.7326	-30.6839	106.06	-8.54223	-52.3045	116.796	-26.9789	13.8238	100.762	-22.6722	-2.07468	83.695	-19.0738	-13.8102	154.25	-40.8038	40.684	160.997	-43.6921	68.2739	189	-30.0253	47.8482	
31	0.258333	203.333	0.387277	53.7098	210.291	15.605	26.1056	217.106	27.3561	4.13066	220.354	39.3318	-17.0033	177.505	-10.8098	-18.6615	174.156	2.30165	-45.3541	165.908	14.169	-66.2354	153.355	-27.486	-21.2613	144.291	-21.7333	-45.7439	135.916	-9.93134	-77.291	133.792	-26.0467	-8.40612	120.288	-19.7879	-29.4196	109.339	-7.20768	-48.7278	113.742	-22.2251	16.3154	100.218	-11.3919	1.63938	86.172	4.10338	-11.7881	155.602	-39.7343	40.0761	164.221	-44.3955	70.6383	186.096	-31.6785	48.0743	
32	0.266667	206.689	1.98139	55.3362	209.393	21.0893	26.4802	214.285	35.8831	2.58757	207.612	48.4706	-17.1306	181.152	-15.875	-16.8301	181.293	-5.52053	-48.0471	175.226	3.67837	-67.298	156.617	-29.9995	-16.1472	149.276	-26.5989	-46.9467	134.552	-18.7149	-74.6834	133.754	-25.4593	-5.37188	120.47	-15.4442	-27.8828	103.755	6.66034	-42.4832	115.95	-18.8845	16.8938	99.1073	-1.82452	6.58765	94.5905	24.5248	-3.6801	153.824	-42.3031	42.6244	158.925	-43.8026	70.7179	185.833	-32.6522	45.5382	
33	0.275	202.805	3.51743	54.6947	203.978	26.1031	32.4037	201.04	43.9187	8.25084	188.655	56.0264	-14.0979	185.259	-18.1252	-18.849	183.488	-14.1054	-44.4541	175.398	-6.07394	-68.0405	154.04	-31.4663	-13.5854	147.007	-27.0618	-45.4676	134.07	-10.3771	-70.5467	130.797	-23.8592	-6.54841	117.024	-10.0664	-24.8456	104.286	15.0997	-30.4691	114.587	-17.802	15.9304	101.572	0.86189	6.72578	97.2781	30.3834	2.67837	156.042	-44.1278	42.5842	162.437	-44.7194	69.0081	190.947	-31.0302	49.0227	
34	0.283333	198.979	2.70476	54.2137	197.293	28.005	30.475	187.092	42.2331	12.0076	171.203	55.3139	-9.21697	180.289	-19.6303	-15.4073	184.175	-12.7708	-46.969	177.099	-4.01841	-66.9141	156.863	-26.6467	-19.4813	144.652	-16.0802	-43.6294	127.301	13.4808	-60.1455	134.659	-23.1789	-5.04627	119.234	-8.24831	-21.7225	108.883	24.0793	-27.5662	116.69	-21.806	15.9836	101.851	-3.81024	4.90596	98.8673	21.9696	-0.109417	154.52	-43.6531	45.5588	163.313	-46.0352	73.0597	189.041	-32.7481	47.2692	
35	0.291667	197.452	1.97068	58.7836	192.087	27.4852	30.1848	181.611	43.8989	10.1708	161.186	48.515	-4.35335	183.636	-14.7921	-19.0802	177.514	-6.63006	-42.4173	173.324	9.23006	-64.0828	153.689	-21.752	-20.9066	141.04	-4.14084	-41.9579	123.215	25.0331	-48.6426	133.906	-27.4075	-3.80546	121.679	-9.43091	-26.8989	104.938	17.686	-31.0355	117.629	-30.7563	13.0878	103.585	-20.3973	1.39658	91.6767	4.63876	-7.57223	159.46	-46.4871	42.8006	164.438	-49.6207	74.2447	187.592	-35.5123	48.8359	
36	0.3	195.349	5.50685	54.9517	189.651	28.1964	33.9704	177.898	43.5483	5.36128	161.584	50.2548	-8.48608	176.781	-7.76939	-19.1132	172.422	8.85056	-41.2761	157.88	23.9362	-56.1976	157.655	-17.2755	-21.3894	141.915	-2.37938	-40.2339	122.812	28.0835	-51.6314	139.527	-31.6257	-5.80996	123.47	-19.6893	-30.1984	106.58	1.36574	-41.7937	121.793	-39.8788	17.4562	101.743	-35.929	-3.95344	90.5802	-25.0505	-15.9564	162.084	-44.7783	42.0419	168.988	-49.2846	67.2281	191.337	-31.4345	50.6411	
37	0.308333	190.189	14.3626	58.4018	185.55	37.0314	32.9522	174.391	50.7064	3.41599	160.34	56.7589	-12.6549	172.527	1.18619	-17.8766	160.902	14.3037	-39.2895	147.206	33.8573	-54.8016	157.531	-18.5015	-22.3942	140.589	-8.15012	-44.0567	118.065	12.8623	-61.0365	144.37	-35.2922	-7.30341	128.906	-29.0765	-33.6771	112.778	-17.3297	-50.0952	126.254	-46.2514	14.2973	110.32	-48.6195	-5.2246	95.7915	-44.3574	-22.7754	167.555	-43.3174	41.9751	172.219	-47.1715	66.7589	191.796	-21.9063	44.4725	
38	0.316667	179.919	28.6901	58.4273	169.833	48.0288	33.6832	158.439	60.7214	5.61377	146.33	68.0088	-8.56805	165.23	12.4638	-22.3722	152.146	23.6131	-42.7228	132.088	32.3891	-58.3031	160.388	-15.6601	-22.7023	148.062	-7.93932	-47.6185	125.56	1.62334	-73.4464	152.045	-30.9629	-13.4383	140.986	-34.8019	-33.2596	123.833	-29.6468	-56.1775	139.816	-47.4082	11.9027	127.587	-56.2637	-3.88736	115.304	-59.5165	-23.7446	174.216	-32.0027	39.5622	182.123	-32.9589	63.9003	192.506	-6.32627	44.0924	
39	0.325	160.776	44.8023	59.8119	144.745	56.8075	33.0283	130.807	65.584	10.4837	117.276	73.6015	-2.70881	158.124	28.4723	-16.6199	145.387	35.1871	-41.2693	127.322	38.1191	-62.1826	164.112	2.2414	-26.5796	152.789	-0.144558	-52.9904	135.711	-0.868524	-80.2118	159.718	-22.544	-16.8151	152.737	-24.3826	-38.9706	138.698	-27.6602	-63.3218	154.856	-39.0396	4.6169	147.391	-53.3239	-12.6104	137.92	-62.6925	-32.1995	179.622	-18.4011	35.8279	186.394	-18.1351	64.9085	185.781	16.6441	43.5464	
40	0.333333	138.122	46.9973	61.1623	117.386	54.1266	41.9615	98.7042	62.8858	21.0009	84.8719	65.4827	4.05382	143.874	41.0038	-14.7258	132.761	42.1363	-39.4222	118.031	43.0594	-64.6121	162.077	15.8561	-23.3677	154.166	17.8862	-48.2451	145.251	15.835	-81.0181	166.156	-7.22313	-13.4411	162.669	-8.29514	-39.6418	157.767	-15.4611	-64.1363	168.542	-30.2703	2.80012	167.002	-42.0564	-16.7375	164.668	-52.7388	-35.7987	179.576	2.91518	34.2496	188.48	2.20104	62.6148	171.049	30.078	47.3551	
41	0.341667	120.941	37.3112	64.9944	96.029	38.9612	48.5429	76.7644	40.0447	24.4064	58.8734	38.5886	7.16865	128.23	46.2789	-10.6574	119.025	48.401	-35.8033	108.937	51.1474	-56.9815	154.581	32.3885	-22.5957	153.059	31.9264	-47.4506	149.48	33.8552	-79.3892	168.129	8.91557	-16.0578	166.89	10.0211	-36.8127	166.731	3.22446	-67.3387	176.325	-15.5193	3.0301	177.125	-24.0558	-22.041	180.811	-35.5929	-37.553	177.345	16.8717	37.4899	181.349	15.066	61.7398	154.844	40.4949	51.8058	
42	0.35	112.099	24.1614	63.4871	89.5263	14.2394	45.9239	68.5492	8.47845	21.5883	56.684	-1.15792	1.26673	121.3	43.8408	-11.6115	112.624	47.9592	-31.4527	103.76	52.7817	-53.9908	152.501	40.1357	-17.7849	151.67	45.0939	-39.6937	148.837	52.6466	-71.6703	163.54	19.975	-12.5261	166.877	20.3886	-37.9761	165.652	18.1873	-62.1132	180.686	-5.7607	1.29431	184.15	-13.6168	-18.0047	187.209	-22.8704	-40.3836	171.669	25.2297	39.5024	177.267	22.9209	63.691	143.644	40.0955	51.019	
